<svg width="152" height="128" viewBox="0 0 152 128" fill="none" xmlns="http://www.w3.org/2000/svg">
<path opacity="0.5" d="M56.173 3.7952C56.173 1.69873 57.8679 0 59.9597 0H100.075C102.166 0 103.861 1.69873 103.861 3.7952V27.9261C103.861 30.0226 102.166 31.7213 100.075 31.7213H63.7464V42.442L100.075 78.8638L109.431 69.482C110.225 68.6871 111.334 68.2868 112.446 68.385C113.563 68.4847 114.579 69.0757 115.219 69.9987L151.323 122.039C152.127 123.198 152.222 124.71 151.569 125.963C150.916 127.216 149.623 128 148.213 128H3.79677C1.70501 128 -3.6472e-06 126.301 -3.6472e-06 124.205C-3.6472e-06 123.303 0.314043 122.474 0.838623 121.822L56.173 42.8144V3.7952ZM96.288 24.1309V7.5904H63.7464V24.1309H96.288ZM140.968 120.41L111.586 78.0587L102.753 86.9157C102.043 87.6272 101.079 88.0274 100.075 88.0274C99.0705 88.0274 98.1071 87.6272 97.3968 86.9157L60.4686 49.8922L11.0813 120.411L140.968 120.41Z" fill="#D8E8F8"/>
</svg>
