<svg width="163" height="163" viewBox="0 0 163 163" fill="none" xmlns="http://www.w3.org/2000/svg">
<path d="M9.87882 36.7121H2.46973V2.46973H34.8549V9.87882H9.87882V36.7121Z" fill="#D8F8E8" fill-opacity="0.5"/>
<path d="M34.8549 160.53H2.46973V128.936H9.87882V153.121H34.8549V160.53Z" fill="#D8F8E8" fill-opacity="0.5"/>
<path d="M160.53 34.0646H153.121V9.87882H128.145V2.46973H160.53V34.0646Z" fill="#D8F8E8" fill-opacity="0.5"/>
<path d="M160.53 160.53H128.145V153.121H153.121V128.936H160.53V160.53Z" fill="#D8F8E8" fill-opacity="0.5"/>
<path d="M81.4909 59.0493C69.1177 59.0493 59.0413 69.1257 59.0413 81.4989C59.0413 93.872 69.1177 103.948 81.4909 103.948C93.8887 103.948 103.965 93.872 103.965 81.4989C103.965 69.1257 93.889 59.0493 81.4909 59.0493ZM81.4909 90.5876C76.5021 90.5876 72.4271 86.5126 72.4271 81.4991C72.4271 76.4856 76.5021 72.4106 81.4909 72.4106C86.5043 72.4106 90.5793 76.4856 90.5793 81.4991C90.5793 86.5123 86.5043 90.5876 81.4909 90.5876Z" fill="#D8F8E8" fill-opacity="0.5"/>
<path d="M151.927 77.5719C113.103 38.7483 49.9035 38.7483 11.0554 77.5719L7.15326 81.5235L11.0801 85.4256C30.4919 104.837 56.0039 114.543 81.4911 114.543C107.003 114.543 132.515 104.837 151.927 85.4256L155.829 81.5235L151.927 77.5719ZM81.4909 108.888C66.401 108.888 54.1019 96.6133 54.1019 81.4988C54.1019 66.3842 66.401 54.1098 81.4909 54.1098C96.6054 54.1098 108.905 66.3842 108.905 81.4988C108.905 96.6133 96.6054 108.888 81.4909 108.888ZM63.2932 37.9222L58.8662 31.9806L62.8264 29.0286L67.2533 34.9702L63.2932 37.9222ZM54.4396 26.0402L50.0126 20.0986L53.9728 17.1466L58.3997 23.0882L54.4396 26.0402ZM83.9697 34.6758H79.0303V28.5015H83.9697V34.6758ZM83.9697 21.0924H79.0303V13.6833H83.9697V21.0924ZM99.7081 37.9222L95.7479 34.9702L100.175 29.0286L104.135 31.9806L99.7081 37.9222ZM108.562 26.0402L104.602 23.0882L109.028 17.1466L112.989 20.0989L108.562 26.0402ZM109.028 145.853L104.602 139.912L108.562 136.96L112.989 142.901L109.028 145.853ZM100.175 133.971L95.7477 128.03L99.7079 125.078L104.135 131.019L100.175 133.971ZM83.9697 149.317H79.0303V141.908H83.9697V149.317ZM83.9697 134.498H79.0303V128.324H83.9697V134.498ZM53.9728 145.853L50.0126 142.901L54.4396 136.96L58.3997 139.912L53.9728 145.853ZM62.8266 133.971L58.8665 131.019L63.2934 125.078L67.2536 128.03L62.8266 133.971Z" fill="#D8F8E8" fill-opacity="0.5"/>
</svg>
